<svg width="71" height="71" viewBox="0 0 71 71" fill="none" xmlns="http://www.w3.org/2000/svg">
<g id="Frame 126" filter="url(#filter0_d_1_389)">
<circle id="Oval Copy 2" cx="40.5" cy="35.5" r="25" fill="white" stroke="#CBCDCE"/>
<path id="Path" fill-rule="evenodd" clip-rule="evenodd" d="M32.5014 35.505C32.504 35.7316 32.5738 35.9483 32.6957 36.11L37.3612 42.2232C37.4844 42.3966 37.6559 42.4966 37.8362 42.4999C38.0165 42.5032 38.1917 42.4116 38.3187 42.2449C38.4457 42.0782 38.5168 41.8499 38.5143 41.6133C38.5118 41.3766 38.4368 41.1516 38.306 40.9899L34.7758 36.3633H47.8238C48.7254 36.38 48.7254 34.6 47.8238 34.6166H34.777L38.3048 29.995C38.4305 29.8317 38.5016 29.6083 38.5016 29.3767C38.5016 29.1433 38.4318 28.92 38.306 28.7567C38.179 28.59 38.0089 28.5 37.8324 28.5C37.6546 28.5 37.4844 28.595 37.36 28.76L32.6944 34.8733C32.5674 35.04 32.4963 35.27 32.5001 35.5066" fill="#CBCDCE"/>
</g>
<defs>
<filter id="filter0_d_1_389" x="0" y="0" width="71" height="71" filterUnits="userSpaceOnUse" color-interpolation-filters="sRGB">
<feFlood flood-opacity="0" result="BackgroundImageFix"/>
<feColorMatrix in="SourceAlpha" type="matrix" values="0 0 0 0 0 0 0 0 0 0 0 0 0 0 0 0 0 0 127 0" result="hardAlpha"/>
<feOffset dx="-5"/>
<feGaussianBlur stdDeviation="5"/>
<feColorMatrix type="matrix" values="0 0 0 0 0 0 0 0 0 0 0 0 0 0 0 0 0 0 0.0968094 0"/>
<feBlend mode="normal" in2="BackgroundImageFix" result="effect1_dropShadow_1_389"/>
<feBlend mode="normal" in="SourceGraphic" in2="effect1_dropShadow_1_389" result="shape"/>
</filter>
</defs>
</svg>
